PathFileType	4	(X/Y/Z)	21_coords_data.trc
DataRate	CameraRate	NumFrames	NumMarkers	Units	OrigDataRate	OrigDataStartFrame	OrigNumFrames
30.0	30.0	7	21	m	30.0	1	71
Frame#	Time	THUMB_TIP	THUMB_IP	THUMB_MCP	THUMB_CMC	INDEX_TIP	INDEX_DIP	INDEX_PIP	INDEX_MCP	MIDDLE_TIP	MIDDLE_DIP	MIDDLE_PIP	MIDDLE_MCP	RING_TIP	RING_DIP	RING_PIP	RING_MCP	PINKY_TIP	PINKY_DIP	PINKY_PIP	PINKY_MCP	WRIST
X1	Y1	Z1	X2	Y2	Z2	X3	Y3	Z3	X4	Y4	Z4	X5	Y5	Z5	X6	Y6	Z6	X7	Y7	Z7	X8	Y8	Z8	X9	Y9	Z9	X10	Y10	Z10	X11	Y11	Z11	X12	Y12	Z12	X13	Y13	Z13	X14	Y14	Z14	X15	Y15	Z15	X16	Y16	Z16	X17	Y17	Z17	X18	Y18	Z18	X19	Y19	Z19	X20	Y20	Z20	X21	Y21	Z21
0	-2.749317978547796e-18	0.5446515018966817	-0.025075201173105244	-0.11709657701744641	0.5243182740050443	-0.02123855514234052	-0.12708857335158108	0.4952390477673784	-0.01652493510088371	-0.11703867845046795	0.4748144307503073	-0.021666410303204486	-0.07771578114559108	0.5594933647566702	0.062137911352714736	-0.16083913165849623	0.547962414875619	0.052878990312652085	-0.15038400965946774	0.5311145377803886	0.043230829720805386	-0.13441304013417127	0.504938827083538	0.0276610153761373	-0.10464646248763373	0.5199671544728481	-0.014790574110550958	-0.11165006122076299	0.5350918791350142	-0.011316646320826185	-0.12098679135531437	0.5468691786267469	0.015136851132804052	-0.11768266678853079	0.5165220451379804	0.026770423167205792	-0.08702554018254605	0.5272005227595344	-0.019210020370458714	-0.10579644922461764	0.5437673074932067	-0.01283207167039957	-0.10893705648557528	0.5566934718410588	0.0064846092318811	-0.09999501571336977	0.5284589229066641	0.0168885941745488	-0.07298967961503497	0.6031738243366798	0.010322211368886003	-0.07699605763504952	0.586576530680938	0.006186137178282647	-0.07634587797149889	0.5660781350667157	0.0017536509141222734	-0.07535549331851663	0.5304748309032594	-0.0016335770712787578	-0.0706848541524775	0.4622830810018609	-0.023011742144276925	-0.051989820119430985
1	0.03333333333333339	0.544594711822156	-0.025142292256236987	-0.11776899364012863	0.523929558363805	-0.02177020042144595	-0.1272336874651044	0.4948816331065393	-0.016801039948397545	-0.1172164282370819	0.4748996071313577	-0.022155571719410072	-0.07769507163789124	0.5597347865313458	0.06192888900820892	-0.16110727157755106	0.5481545509616887	0.052583478965634645	-0.15078441076828877	0.5315726821557109	0.04257728986627807	-0.13475544824386892	0.5053745515545953	0.026782840088179882	-0.10512726228498798	0.5196709919449276	-0.0162797094379441	-0.11191685272687399	0.53501561090473	-0.012345224934295684	-0.12069537769801925	0.5470464017119743	0.014008747693057377	-0.11751139445229508	0.5169701334701811	0.02638281093705719	-0.08687728652532603	0.5276118212540472	-0.020026773916685614	-0.10573460086062428	0.5441952418779521	-0.013533844628346281	-0.10853317722500513	0.5570295616671481	0.0059144140462558115	-0.09974537607372633	0.5287797022293123	0.016448758364380867	-0.07280667036001925	0.6036762852616929	0.00908329514147177	-0.07665073328840913	0.5870792743217881	0.004925120922314896	-0.07615191967209908	0.5664842381507098	0.0009830823034303604	-0.07509511522509774	0.5309538486540472	-0.0026803962618143773	-0.07008973831447032	0.46228308100186083	-0.023011742144276925	-0.051989820119430985
2	0.06666666666666676	0.5445089739453619	-0.025240183261195037	-0.11829828962662402	0.5236072495057396	-0.022205971164897753	-0.12734878532601956	0.49458750623698716	-0.017031989843947715	-0.11735356557324969	0.47495727099221713	-0.022534372317792428	-0.07767652370586098	0.5599344508670463	0.06168708538378731	-0.1613331366952418	0.548313357996998	0.052283260338925164	-0.15110971872318676	0.5319244293766838	0.04202353909461154	-0.1350426414635472	0.5057057143268567	0.026073615157759855	-0.10551612792834267	0.51944340737078	-0.0174381747332778	-0.11212595662122846	0.5349297363954497	-0.013151888037795989	-0.12048067742469105	0.5471628600825205	0.013121477790562053	-0.11740326245330654	0.5173110827678924	0.026067556830232097	-0.08678597404207586	0.527910067163642	-0.020667848109281906	-0.10570029739743142	0.5445042596781096	-0.014098858595866792	-0.10824610798846818	0.5572744956131646	0.005450043043183528	-0.09958923223160476	0.5290230141119254	0.016094805565732728	-0.07269567058901683	0.6040458107774631	0.008002035851520928	-0.07643830598612317	0.5874415655887586	0.003860855891792969	-0.07605143358528599	0.5667770516339272	0.0003200065855151202	-0.0749323856860376	0.5313016002709647	-0.0034928379297133327	-0.06965621109673664	0.4622830810018609	-0.023011742144276925	-0.051989820119430985
3	0.10000000000000014	0.5444188404969715	-0.025352773282191987	-0.11869987085299255	0.5233532098185202	-0.022547376496649396	-0.127438804025569	0.49435762358745944	-0.01721421247062349	-0.11745715383190733	0.474992192111724	-0.022807663932690736	-0.07766289087227843	0.5600947181027381	0.06144696846508024	-0.16151501446900746	0.5484394973197673	0.05200794301483269	-0.15136313646295446	0.5321805871147411	0.04157901889930282	-0.13527291540364572	0.5059415341013447	0.02553264490632745	-0.10581681123765424	0.5192738152661276	-0.018302002919660776	-0.11228651120393851	0.5348460632352077	-0.013754299887241417	-0.1203378148448655	0.547231637479402	0.012458110571392678	-0.11735174073499313	0.517556057319962	0.025822257996762854	-0.0867427971597303	0.5281079266923764	-0.02114640638138665	-0.10568424955408082	0.5447104650826631	-0.014534997714839126	-0.10806016925873357	0.5574402375039184	0.005088021953911226	-0.0995120716819107	0.529197264469035	0.01582271272578306	-0.07264533160829648	0.6043102368197284	0.00708228046216175	-0.07634289188538215	0.5876921926410131	0.0029903103336685888	-0.07603242748840885	0.5669790160703285	-0.00023335334207974512	-0.07485585285953786	0.5315403456727695	-0.004088263657382352	-0.06936734141159934	0.46228308100186094	-0.023011742144276925	-0.051989820119430985
4	0.13333333333333353	0.5443403420307928	-0.025466885060996147	-0.11898845144351225	0.5231668376460334	-0.022798364366300783	-0.1275067675547256	0.49419072182977847	-0.017347205782125452	-0.1175323210892242	0.4750093196332895	-0.02298450810908348	-0.07765520193235675	0.5602204316537215	0.06123130447045266	-0.16165084568714852	0.5485364567020075	0.05177593548617443	-0.15154734497210576	0.5323540404635734	0.04124583091342893	-0.13544591226029068	0.5060935980687126	0.02515190123716493	-0.10603484824006748	0.5191552023619718	-0.018907094503714195	-0.11240602978056109	0.5347733240669945	-0.01417247170057756	-0.12025826648860244	0.5472643889342407	0.011998292388453513	-0.11734726056649675	0.5177172551331621	0.025642801722766673	-0.0867377494601917	0.5282203437734947	-0.0214777567953387	-0.10567889308565623	0.544830620872693	-0.014851772574109523	-0.10795815344548138	0.5575392985150961	0.0048229333129999885	-0.09949792650779063	0.529311363385407	0.015626660264243086	-0.07264305737243554	0.6044910014868741	0.006322561252278147	-0.07634500457615451	0.5878540837803259	0.00230476515020539	-0.07607989383002886	0.5671079917824726	-0.0006787783772900235	-0.0748510106638387	0.53168957742853	-0.004488821227204398	-0.06920274109393906	0.4622830810018609	-0.023011742144276925	-0.051989820119430985
5	0.1666666666666669	0.544283024524533	-0.025571934876794655	-0.11917745304564015	0.5230454273620613	-0.022964769766308013	-0.12755403688699435	0.4940836117376692	-0.017432838735888634	-0.11758252873559621	0.4750135849550532	-0.02307714746493439	-0.07765301762562232	0.5603182914554861	0.06105383953948018	-0.16173854403781995	0.5486098153491775	0.05159696604106079	-0.15166485896715715	0.5324591123886373	0.0410199964496325	-0.1355623019918692	0.5061751244819434	0.024917279770519052	-0.10617709160853225	0.5190827642497505	-0.01928851796461517	-0.11248968339994064	0.5347177231677762	-0.014427866446472204	-0.12023062174427734	0.5472715784831645	0.011719265479871122	-0.11737794602721865	0.5178076123105568	0.025523735555192273	-0.08675999011375196	0.5282639729405334	-0.021678792789782686	-0.10567801494798473	0.5448819313550509	-0.015059973698307916	-0.10792182687586463	0.5575845551421358	0.004647841347230397	-0.09952984534260079	0.5293745721571778	0.015499438645489971	-0.07267541311876136	0.6046046573164991	0.005717552485770772	-0.07642263530141022	0.5879455812357129	0.0017913943273336619	-0.07617673644107797	0.5671784046870358	-0.0010209900410483863	-0.07490123992577224	0.531766483422682	-0.004720045259638428	-0.06913961915926686	0.4622830810018609	-0.023011742144276925	-0.051989820119430985
6	0.20000000000000023	0.5442518056063901	-0.02565921850373354	-0.1192790783992784	0.5229846080525017	-0.023053711745099292	-0.1275807434572407	0.4940315693557076	-0.017474622983230548	-0.11761002037367575	0.475009804439718	-0.023099990817181726	-0.07765482426336268	0.5603962233029847	0.06092187897574197	-0.16177613853818518	0.5486665305768488	0.05147453328105023	-0.1517182079421119	0.5325110135420065	0.040892960209146456	-0.13562350652640115	0.5062003316012481	0.024810095940968724	-0.10625131582254607	0.5190529293238133	-0.01948036690467636	-0.1125404644688286	0.5346835482995511	-0.014542767670318257	-0.12024136469128147	0.547262749957186	0.011596690769029583	-0.11743032428706084	0.5178405534419097	0.025458629966586432	-0.08679816936939785	0.5282565649180297	-0.021767519610405794	-0.10567638634442414	0.5448818719814841	-0.015171326715734179	-0.10793235716474478	0.5575891043075639	0.0045547047336869095	-0.0995903005317865	0.5293963817479318	0.015432839377795049	-0.07272847975693444	0.6046644714285435	0.0052592596216332055	-0.07655216765211073	0.5879818349029478	0.0014345603116370231	-0.07630455153193055	0.5672024415109748	-0.0012667532356206435	-0.07498859774055736	0.5317865678026545	-0.004809721334906425	-0.06915364122625797	0.46228308100186094	-0.023011742144276925	-0.051989820119430985
